<?xml version="1.0" encoding="UTF-8"?>
<!-- Svg Vector Icons : http://www.onlinewebfonts.com/icon -->
<!DOCTYPE svg PUBLIC "-//W3C//DTD SVG 1.1//EN" "http://www.w3.org/Graphics/SVG/1.1/DTD/svg11.dtd">
<svg version="1.1" xmlns="http://www.w3.org/2000/svg" xmlns:xlink="http://www.w3.org/1999/xlink" x="0px" y="0px" viewBox="0 0 256 256" enable-background="new 0 0 256 256" xml:space="preserve">
<metadata> Svg Vector Icons : http://www.onlinewebfonts.com/icon </metadata>
<g><g><g><path fill="#000000" d="M66.3,11c-0.9,0.9-1,1.6-1,12.9v11.9l-1.2,0.7c-1.7,1.1-2.9,4.1-2.6,6.6c0.3,2.8,1.9,4.9,4.6,5.9c7.4,2.8,13.2-6.2,7.8-11.9l-1.5-1.6V23.8c0-11.2,0-11.8-1-12.8c-0.5-0.5-1.6-1-2.5-1S66.9,10.4,66.3,11z"/><path fill="#000000" d="M107.2,11c-0.9,0.9-1,1.6-1,12.9v11.9l-1.2,0.7c-1.7,1.1-2.9,4.1-2.6,6.6c0.3,2.8,1.9,4.9,4.6,5.9c7.4,2.8,13.2-6.2,7.8-11.9l-1.5-1.6V23.8c0-11.2-0.1-11.8-1-12.8c-0.5-0.5-1.6-1-2.5-1S107.7,10.4,107.2,11z"/><path fill="#000000" d="M148.5,11c-0.9,0.9-1,1.6-1,12.9v11.9l-1.2,0.7c-1.7,1.1-2.9,4.1-2.6,6.6c0.3,2.8,1.9,4.9,4.6,5.9c7.4,2.8,13.2-6.2,7.8-11.9l-1.5-1.6V23.8c0-11.2-0.1-11.8-1-12.8c-0.5-0.5-1.6-1-2.5-1S149,10.4,148.5,11z"/><path fill="#000000" d="M36.3,23.9c-3.4,1.3-6.5,4.1-8,7.1L27,33.6v100.1v100.1l1.4,3c1.7,3.6,4.4,6.2,8,7.9l2.7,1.3h71h70.9l2.6-1.3c3.1-1.5,5.8-4.6,7.1-8.2c0.9-2.4,0.9-4.1,0.9-36.7v-34.2l-3.4,6.7l-3.3,6.7l-0.3,27.1c-0.2,26-0.3,27.2-1.2,28.8c-0.5,0.9-1.6,2.1-2.4,2.7l-1.4,1l-68.8,0.1c-76.4,0.1-71.4,0.3-74.5-3.1c-0.8-0.9-1.7-2.6-2-3.6c-0.4-1.3-0.5-30.2-0.4-99.6l0.1-97.7l1-1.4c2.2-3,3.6-3.4,13.3-3.5l8.8-0.2v-3.4v-3.4h-9.3C40.1,23,38.3,23.1,36.3,23.9z"/><path fill="#000000" d="M80.3,26.4v3.5h9h9v-3.5v-3.5h-9h-9V26.4z"/><path fill="#000000" d="M121.1,26.4v3.5h9.2h9.2v-3.5v-3.5h-9.2h-9.2V26.4z"/><path fill="#000000" d="M162.4,26.3v3.5l8.9,0.2c9.6,0.2,10.6,0.4,12.4,3.2c0.8,1.2,0.9,3,1,15.6l0.2,14.3l1.8-1.2c0.9-0.7,2.5-1.3,3.5-1.5l1.7-0.3l-0.2-14c-0.1-13.2-0.2-14.1-1.2-16c-1.2-2.3-3.7-4.7-6.1-6c-1.5-0.8-3.1-0.9-11.8-1.1l-10.1-0.1L162.4,26.3L162.4,26.3z"/><path fill="#000000" d="M205.5,56.7c-2.3,0.5-3.6,2.1-6,7.3c-1.9,4.1-2.6,5.2-3.2,4.9c-3.3-1.4-3.6-1.4-4.9-0.7c-1,0.6-4.5,7.6-16.1,31.6c-8.2,17-14.8,31.5-14.9,32.2c0,2.4,2.7,3.8,4.5,2.2c0.5-0.4,6.9-13.2,14.2-28.5c7.3-15.2,13.8-28.3,14.4-28.9c1.4-1.5,0.7-1.7,15.7,5.6l11.8,5.7l3.7-7.8c2-4.3,3.9-8.3,4.1-8.9c0.4-1.5-0.5-4.2-1.9-5.4c-1.3-1.1-17.5-8.9-19.3-9.3C207,56.6,206,56.6,205.5,56.7z"/><path fill="#000000" d="M59.4,84.2v3.5h50h50v-3.5v-3.5h-50h-50V84.2z"/><path fill="#000000" d="M192.8,91.8c-2.1,4.5-7.8,16.3-12.6,26.3c-4.8,10-9.3,18.9-10.1,19.9c-1.4,1.8-4.7,3.5-6.7,3.5c-1.1,0-1.9,1.4-9.4,17.1c-4.5,9.4-8.1,17.2-8.1,17.5c0,0.2,5.9,3.3,13.1,6.8l13.1,6.3l1.3-2.8c0.7-1.6,11.1-23,23-47.6L218,93.9l-10.5-5.1c-5.8-2.8-10.6-5.1-10.7-5.1C196.8,83.7,194.9,87.3,192.8,91.8z"/><path fill="#000000" d="M59.4,109.1v3.5h50h50v-3.5v-3.5h-50h-50V109.1z"/><path fill="#000000" d="M59.4,134v3.5h47.3h47.3l-0.7-2.3c-0.4-1.2-0.7-2.8-0.7-3.5v-1.1h-46.6H59.4V134z"/><path fill="#000000" d="M142.5,182.6c0,0.2-0.4,6.9-1,14.8c-1.2,17.8-1.2,20.3-0.2,21.2c0.5,0.4,1.1,0.5,1.9,0.1c1.5-0.7,26-23,26-23.6c0-0.5-25.1-12.9-26.2-12.9C142.7,182.3,142.5,182.4,142.5,182.6z"/></g></g></g>
</svg>